<svg xmlns="http://www.w3.org/2000/svg" width="47.086" height="48.107" viewBox="0 0 47.086 48.107"><defs><style>.a{fill:#3b8040;}</style></defs><g transform="translate(0 1.892)"><path class="a" d="M8.5,17A8.5,8.5,0,1,1,17,8.5,8.51,8.51,0,0,1,8.5,17ZM6.182,10.046a2.321,2.321,0,0,0,1.545,2.176v1.687H9.273V12.364h1.546V10.046A2.321,2.321,0,0,0,8.5,7.727a.774.774,0,0,1-.773-.773V6.182H8.5a.774.774,0,0,1,.773.773h1.546A2.321,2.321,0,0,0,9.273,4.779V3.091H7.727V4.636H6.182V6.954A2.321,2.321,0,0,0,8.5,9.273a.774.774,0,0,1,.773.773v.773H8.5a.774.774,0,0,1-.773-.773Z" transform="translate(26.543 -1.892)"/><g transform="translate(0 -0.111)"><path class="a" d="M72,13.316v1.519h3.578a4.919,4.919,0,0,0,3.257-1.22,4.919,4.919,0,0,0,3.257,1.22h.54V13.316a5.316,5.316,0,1,0-10.632,0Zm0,0" transform="translate(-65.165 -8)"/><path class="a" d="M376,384h6.076v9.873H376Zm0,0" transform="translate(-340.306 -348.306)"/><path class="a" d="M296,384h6.076v9.873H296Zm0,0" transform="translate(-267.9 -348.306)"/><path class="a" d="M22.431,356.817l-7.242-6.208v3.17H0v6.076H15.189v3.17Zm0,0" transform="translate(0 -318.085)"/></g><path class="a" d="M24.3,20a3.8,3.8,0,0,0-3.118-3.736l-5.236-.952V13.848a6.064,6.064,0,0,0,2.278-4.735V6.075a6.076,6.076,0,1,0-12.151,0V9.113a6.063,6.063,0,0,0,2.278,4.735v1.466l-5.236.952A3.8,3.8,0,0,0,0,20V31.9H24.3Zm-7.867-3.055L15.5,20.692l-2.211-1.769,2.156-2.156Zm-4.35,6.6h.131l.621,6.835H11.464Zm.419-1.519H11.8l-.775-1.163,1.128-.9,1.128.9ZM7.595,9.113V6.075a4.557,4.557,0,0,1,9.113,0V9.113a4.557,4.557,0,0,1-9.113,0Zm4.557,6.076a6.034,6.034,0,0,0,2.278-.447v.892l-2.278,2.278L9.873,15.634v-.892A6.034,6.034,0,0,0,12.151,15.189ZM8.858,16.767l2.156,2.156L8.8,20.692l-.936-3.745ZM1.519,20a2.279,2.279,0,0,1,1.87-2.242l2.98-.542L7.9,23.356l1.928-1.542.779,1.168-.672,7.4H6.076V22.783H4.557v7.595H1.519ZM22.784,30.378H19.746V22.783H18.227v7.595H14.364l-.672-7.4.779-1.168L16.4,23.356l1.534-6.137,2.98.542A2.278,2.278,0,0,1,22.784,20Zm0,0" transform="translate(0 -0.871)"/><path class="a" d="M260.505,178.227V163.038h-1.519V160h-13.67v3.038H243.8v15.189H240V191.9h24.3v-13.67Zm-13.67-16.708h10.632v1.519H246.835Zm-1.519,3.038h13.67v13.67h-13.67Zm17.467,25.821H241.519V179.746h21.265Zm0,0" transform="translate(-217.216 -145.682)"/><path class="a" d="M312,224v10.632h10.632V224Zm9.113,4.557h-3.038v-3.038h3.038Zm-4.557-3.038v3.038h-3.038v-3.038Zm-3.038,4.557h3.038v3.038h-3.038Zm4.557,3.038v-3.038h3.038v3.038Zm0,0" transform="translate(-282.381 -203.606)"/><path class="a" d="M0,352H1.519v1.519H0Zm0,0" transform="translate(0 -319.455)"/><path class="a" d="M32,352h1.519v1.519H32Zm0,0" transform="translate(-28.962 -319.455)"/><path class="a" d="M64,352h1.519v1.519H64Zm0,0" transform="translate(-57.924 -319.455)"/><path class="a" d="M0,464H1.519v1.519H0Zm0,0" transform="translate(0 -420.823)"/><path class="a" d="M32,464h1.519v1.519H32Zm0,0" transform="translate(-28.962 -420.823)"/><path class="a" d="M64,464h1.519v1.519H64Zm0,0" transform="translate(-57.924 -420.823)"/></g></svg>