<?xml version="1.0" encoding="utf-8"?>
<!-- Generator: Adobe Illustrator 19.0.0, SVG Export Plug-In . SVG Version: 6.00 Build 0)  -->
<svg version="1.1" id="Layer_1" xmlns="http://www.w3.org/2000/svg" xmlns:xlink="http://www.w3.org/1999/xlink" x="0px" y="0px"
	 viewBox="0 0 484 171.1" style="enable-background:new 0 0 484 171.1;" xml:space="preserve">
<style type="text/css">
	.st0{clip-path:url(#SVGID_2_);}
	.st1{clip-path:url(#SVGID_2_);fill:#006633;}
	.st2{clip-path:url(#SVGID_2_);fill:none;stroke:#006633;stroke-width:0.25;stroke-miterlimit:10;}
	.st3{clip-path:url(#SVGID_4_);fill:url(#SVGID_5_);}
	.st4{clip-path:url(#SVGID_7_);}
	.st5{clip-path:url(#SVGID_7_);fill:#424241;}
	.st6{clip-path:url(#SVGID_9_);fill:url(#SVGID_10_);}
	.st7{clip-path:url(#SVGID_12_);fill:url(#SVGID_13_);}
	.st8{clip-path:url(#SVGID_15_);fill:#424241;}
	.st9{clip-path:url(#SVGID_15_);}
	.st10{clip-path:url(#SVGID_17_);fill:url(#SVGID_18_);}
	.st11{clip-path:url(#SVGID_20_);}
	.st12{clip-path:url(#SVGID_22_);fill:url(#SVGID_23_);}
	.st13{clip-path:url(#SVGID_25_);}
	.st14{clip-path:url(#SVGID_27_);fill:url(#SVGID_28_);}
	.st15{clip-path:url(#SVGID_30_);}
	.st16{clip-path:url(#SVGID_32_);fill:url(#SVGID_33_);}
	.st17{clip-path:url(#SVGID_35_);}
	.st18{clip-path:url(#SVGID_35_);fill:#006633;}
	.st19{clip-path:url(#SVGID_37_);fill:url(#SVGID_38_);}
</style>
<g>
	<defs>
		<rect id="SVGID_1_" x="-2" y="6" width="488" height="153.7"/>
	</defs>
	<clipPath id="SVGID_2_">
		<use xlink:href="#SVGID_1_"  style="overflow:visible;"/>
	</clipPath>
	<path class="st0" d="M103.1,57.5c5.1,0,9.7,0.8,13.7,2.3c4,1.5,7.5,3.7,10.3,6.6c2.8,2.9,5,6.3,6.5,10.4c1.5,4.1,2.3,8.7,2.3,13.8
		c0,4.3-0.6,8.5-1.9,12.5c-1.3,4-3.2,7.5-5.9,10.6c-2.6,3.1-5.9,5.5-9.9,7.4c-4,1.8-8.6,2.8-14,2.8h-19V57.5H103.1z M99.9,111.1h4.2
		c2.8,0,5.3-0.6,7.4-1.7c2.1-1.1,3.8-2.7,5.2-4.5c1.4-1.9,2.4-4.1,3.1-6.5c0.7-2.5,1-5,1-7.6c0-3.1-0.4-5.9-1.2-8.4
		c-0.8-2.5-2-4.7-3.5-6.5c-1.5-1.8-3.3-3.2-5.5-4.2c-2.2-1-4.6-1.5-7.3-1.5h-3.5V111.1z"/>
	<path class="st0" d="M163.9,73.9c3.3,0,6.3,0.6,9,1.7c2.7,1.2,5.1,2.8,7,5.1c2,2.2,3.5,4.9,4.6,8.1c1.1,3.2,1.6,6.8,1.6,10.8
		c0,4.1-0.5,7.7-1.6,10.9c-1,3.1-2.5,5.8-4.5,7.9c-1.9,2.1-4.3,3.8-7,4.9c-2.7,1.1-5.8,1.7-9.2,1.7c-3.4,0-6.4-0.6-9.2-1.7
		c-2.7-1.1-5.1-2.8-7-4.9c-1.9-2.1-3.4-4.8-4.5-7.9c-1.1-3.1-1.6-6.8-1.6-10.9c0-4,0.6-7.6,1.7-10.8c1.1-3.2,2.6-5.9,4.6-8.1
		c2-2.2,4.3-3.9,7-5.1C157.6,74.5,160.6,73.9,163.9,73.9 M163.9,86c-1.2,0-2.3,0.3-3.3,0.9c-1,0.6-1.9,1.5-2.6,2.6
		c-0.7,1.1-1.3,2.5-1.7,4.2c-0.4,1.7-0.6,3.6-0.6,5.7c0,4.5,0.7,7.8,2.2,10c1.5,2.2,3.5,3.3,6.1,3.3c2.6,0,4.6-1.1,6-3.3
		c1.5-2.2,2.2-5.6,2.2-10c0-4.4-0.8-7.7-2.3-10C168.2,87.1,166.3,86,163.9,86"/>
	<path class="st0" d="M206.8,74.8v29.6c0,2.9,0.6,5,1.7,6.3c1.1,1.3,2.5,2,4.1,2c1.1,0,2.4-0.3,3.7-0.9c1.3-0.6,2.5-1.6,3.4-2.9
		V74.8h14v49.1h-9.1l-1.8-4.8c-2,1.9-4.4,3.4-6.9,4.3c-2.6,1-5,1.4-7.4,1.4c-2.1,0-4.1-0.4-6-1.1c-1.9-0.8-3.6-1.9-5-3.4
		c-1.4-1.5-2.6-3.4-3.5-5.6c-0.9-2.2-1.3-4.9-1.3-7.9v-32H206.8z"/>
	<path class="st0" d="M257.2,57.5V75c1-0.3,2-0.6,3-0.8c1-0.2,2-0.3,3-0.3c3.2,0,6.1,0.5,8.8,1.6c2.7,1.1,5,2.6,7,4.7
		c2,2,3.5,4.6,4.6,7.5c1.1,3,1.7,6.4,1.7,10.1c0,4-0.6,7.7-1.7,11c-1.1,3.3-2.8,6.1-4.9,8.5c-2.1,2.4-4.7,4.2-7.7,5.5
		c-3,1.3-6.4,2-10.2,2c-1.7,0-3.4-0.1-5.1-0.3c-1.7-0.2-3.3-0.5-4.9-0.8c-1.6-0.3-3-0.7-4.3-1.2c-1.3-0.4-2.4-0.9-3.4-1.4V57.5
		H257.2z M257.2,112.4c0.6,0.1,1.1,0.2,1.7,0.3c0.6,0.1,1.3,0.1,2.1,0.1c1.6,0,3-0.3,4.3-1.1c1.3-0.7,2.3-1.7,3.2-2.9
		c0.9-1.3,1.6-2.7,2.1-4.4c0.5-1.7,0.7-3.5,0.7-5.5c0-1.7-0.2-3.3-0.5-4.9c-0.4-1.6-0.9-2.9-1.7-4.1c-0.8-1.2-1.7-2.1-2.9-2.9
		c-1.1-0.7-2.5-1.1-4.1-1.1c-0.9,0-1.8,0.1-2.7,0.4c-0.9,0.3-1.7,0.6-2.3,1V112.4z"/>
	<path class="st0" d="M309.8,63.7v11.2h11.6v12.1H310v18.8c0,2.3,0.4,4,1.3,5.3c0.8,1.2,2.1,1.8,3.8,1.8c1.4,0,3-0.6,4.8-1.9l5,9.2
		c-2.1,1.6-4.4,2.8-6.8,3.6c-2.4,0.8-4.8,1.2-7.1,1.2c-2,0-3.9-0.3-5.7-0.9c-1.8-0.6-3.4-1.6-4.7-2.9c-1.4-1.3-2.4-2.9-3.2-4.8
		c-0.8-1.9-1.2-4.2-1.2-6.9V86.9h-6.1V74.8h6.3v-7.5L309.8,63.7z"/>
	<path class="st0" d="M344.6,57.5v49.8c0,1.8,0.4,3.1,1.1,3.9c0.7,0.7,2,1.2,3.9,1.4l-1.7,12c-3.1,0-5.7-0.3-7.9-0.9
		c-2.2-0.6-4-1.5-5.4-2.6c-1.4-1.2-2.4-2.6-3-4.4c-0.6-1.8-1-3.8-1-6.1v-53H344.6z"/>
	<path class="st0" d="M377,73.9c2.4,0,4.9,0.4,7.4,1.2c2.5,0.8,4.8,2.2,6.8,4.1c2,1.9,3.7,4.4,5,7.4s1.9,6.8,1.9,11.2
		c0,0.8-0.1,1.8-0.2,2.8c-0.1,1-0.2,1.9-0.3,2.5h-28c0.1,1.6,0.5,3,1.1,4.2c0.6,1.2,1.4,2.2,2.3,3c0.9,0.8,2,1.4,3.1,1.8
		c1.1,0.4,2.4,0.6,3.6,0.6c1.5,0,3.1-0.3,4.7-1c1.6-0.6,3.1-1.6,4.4-2.9l7.3,9.5c-2.8,2.3-5.8,3.9-9,4.9c-3.1,1-6.2,1.5-9.3,1.5
		c-3.1,0-6.1-0.6-8.8-1.7c-2.8-1.2-5.2-2.9-7.3-5.1c-2.1-2.2-3.7-5-5-8.3c-1.2-3.3-1.8-7-1.8-11.2c0-4,0.6-7.6,1.8-10.7
		c1.2-3.1,2.9-5.7,4.9-7.7c2-2.1,4.4-3.6,7-4.7C371.4,74.4,374.2,73.9,377,73.9 M377.3,86c-1,0-2,0.2-2.9,0.6
		c-0.9,0.4-1.6,1-2.3,1.7c-0.6,0.7-1.2,1.6-1.6,2.5c-0.4,0.9-0.7,1.9-0.8,3h14.7v-0.7c0-1-0.3-1.9-0.7-2.8c-0.4-0.9-0.9-1.6-1.6-2.3
		c-0.6-0.6-1.4-1.1-2.2-1.5C379.2,86.2,378.3,86,377.3,86"/>
	<path class="st0" d="M408.8,108.7c1.7,1.2,3.4,2.3,5.2,3.1c1.8,0.8,3.6,1.3,5.4,1.3c1.7,0,3-0.3,4-0.9c1-0.6,1.5-1.3,1.5-2.2
		c0-1.2-0.5-2.1-1.6-2.8c-1.1-0.7-2.4-1.4-3.9-2c-1.6-0.6-3.3-1.3-5.1-2.1c-1.9-0.7-3.6-1.7-5.1-2.8c-1.6-1.1-2.9-2.6-3.9-4.3
		c-1.1-1.7-1.6-4-1.6-6.6c0-2.6,0.5-4.9,1.6-6.9c1-1.9,2.4-3.5,4.1-4.8s3.7-2.2,5.9-2.8c2.2-0.6,4.5-0.9,6.9-0.9c3,0,6,0.4,8.8,1.3
		c2.8,0.9,5.3,2.2,7.4,4L433,89c-1.4-0.9-2.9-1.7-4.7-2.3c-1.8-0.7-3.6-1-5.4-1c-1.6,0-2.8,0.3-3.8,0.8c-1,0.5-1.5,1.3-1.5,2.4
		c0,0.8,0.5,1.6,1.6,2.2c1.1,0.6,2.4,1.3,3.9,2c1.6,0.7,3.3,1.5,5.1,2.3c1.9,0.9,3.6,1.9,5.1,3.1c1.6,1.2,2.9,2.7,3.9,4.4
		c1.1,1.7,1.6,3.7,1.6,6.1c0,2.7-0.5,5-1.6,7c-1.1,2-2.5,3.6-4.2,5c-1.7,1.3-3.7,2.3-6,3c-2.2,0.7-4.5,1-6.9,1
		c-3.5,0-6.6-0.6-9.5-1.8c-2.9-1.2-5.6-2.9-8-5.1L408.8,108.7z"/>
	<path class="st0" d="M449.6,108.7c1.7,1.2,3.4,2.3,5.2,3.1c1.8,0.8,3.6,1.3,5.4,1.3c1.7,0,3-0.3,4-0.9c1-0.6,1.5-1.3,1.5-2.2
		c0-1.2-0.5-2.1-1.6-2.8c-1.1-0.7-2.4-1.4-3.9-2c-1.6-0.6-3.3-1.3-5.1-2.1c-1.9-0.7-3.6-1.7-5.1-2.8c-1.6-1.1-2.9-2.6-3.9-4.3
		c-1.1-1.7-1.6-4-1.6-6.6c0-2.6,0.5-4.9,1.6-6.9s2.4-3.5,4.1-4.8s3.7-2.2,5.9-2.8c2.2-0.6,4.5-0.9,6.9-0.9c3,0,6,0.4,8.8,1.3
		c2.8,0.9,5.3,2.2,7.4,4l-5.3,9.8c-1.4-0.9-2.9-1.7-4.7-2.3c-1.8-0.7-3.6-1-5.4-1c-1.6,0-2.8,0.3-3.8,0.8c-1,0.5-1.5,1.3-1.5,2.4
		c0,0.8,0.5,1.6,1.6,2.2c1.1,0.6,2.4,1.3,3.9,2c1.6,0.7,3.3,1.5,5.1,2.3c1.9,0.9,3.6,1.9,5.1,3.1c1.6,1.2,2.9,2.7,3.9,4.4
		c1.1,1.7,1.6,3.7,1.6,6.1c0,2.7-0.5,5-1.6,7c-1.1,2-2.5,3.6-4.2,5c-1.7,1.3-3.7,2.3-6,3c-2.2,0.7-4.5,1-6.9,1
		c-3.5,0-6.6-0.6-9.5-1.8c-2.9-1.2-5.6-2.9-8-5.1L449.6,108.7z"/>
	<path class="st1" d="M298.2,148.9v-15.8h1v15.8c0.2,0.3,0.4,0.6,0.7,0.9c0.7,0.7,1.5,1,2.5,1c1,0,1.8-0.3,2.5-1
		c0.7-0.7,1.1-1.5,1.1-2.5v-14.2h1v14.3c0,1.2-0.5,2.2-1.3,3.1c-0.9,0.9-2,1.3-3.2,1.3c-1.3,0-2.3-0.4-3.2-1.3
		c-0.2-0.2-0.3-0.3-0.4-0.5c-0.1,0.2-0.3,0.3-0.4,0.5c-0.9,0.9-2,1.3-3.2,1.3c-1.3,0-2.3-0.4-3.2-1.3c-0.9-0.9-1.3-1.9-1.3-3.1
		v-14.3h1v14.2c0,1,0.3,1.8,1,2.5c0.7,0.7,1.5,1,2.5,1c1,0,1.8-0.3,2.5-1C297.8,149.5,298,149.2,298.2,148.9"/>
	<path class="st2" d="M298.2,148.9v-15.8h1v15.8c0.2,0.3,0.4,0.6,0.7,0.9c0.7,0.7,1.5,1,2.5,1c1,0,1.8-0.3,2.5-1
		c0.7-0.7,1.1-1.5,1.1-2.5v-14.2h1v14.3c0,1.2-0.5,2.2-1.3,3.1c-0.9,0.9-2,1.3-3.2,1.3c-1.3,0-2.3-0.4-3.2-1.3
		c-0.2-0.2-0.3-0.3-0.4-0.5c-0.1,0.2-0.3,0.3-0.4,0.5c-0.9,0.9-2,1.3-3.2,1.3c-1.3,0-2.3-0.4-3.2-1.3c-0.9-0.9-1.3-1.9-1.3-3.1
		v-14.3h1v14.2c0,1,0.3,1.8,1,2.5c0.7,0.7,1.5,1,2.5,1c1,0,1.8-0.3,2.5-1C297.8,149.5,298,149.2,298.2,148.9z"/>
	<polygon class="st1" points="319.4,133.1 319.4,134.2 311.2,134.2 311.2,141.9 319.4,141.9 319.4,142.9 311.2,142.9 311.2,150.6 
		319.4,150.6 319.4,151.7 310.2,151.7 310.2,133.1 	"/>
	<polygon class="st2" points="319.4,133.1 319.4,134.2 311.2,134.2 311.2,141.9 319.4,141.9 319.4,142.9 311.2,142.9 311.2,150.6 
		319.4,150.6 319.4,151.7 310.2,151.7 310.2,133.1 	"/>
	<polygon class="st1" points="331.9,143.4 331.9,151.7 330.8,151.7 330.8,133.1 331.9,133.1 331.9,142.3 339.7,142.3 339.7,133.1 
		340.7,133.1 340.7,151.7 339.7,151.7 339.7,143.4 	"/>
	<polygon class="st2" points="331.9,143.4 331.9,151.7 330.8,151.7 330.8,133.1 331.9,133.1 331.9,142.3 339.7,142.3 339.7,133.1 
		340.7,133.1 340.7,151.7 339.7,151.7 339.7,143.4 	"/>
	<path class="st1" d="M353.1,144.6h-6.4l-2.6,7.1H343l6.9-19l6.9,19h-1.1L353.1,144.6z M352.8,143.5l-2.8-7.8l-2.8,7.8H352.8z"/>
	<path class="st2" d="M353.1,144.6h-6.4l-2.6,7.1H343l6.9-19l6.9,19h-1.1L353.1,144.6z M352.8,143.5l-2.8-7.8l-2.8,7.8H352.8z"/>
	<polygon class="st1" points="358.5,133.1 364.3,149.1 370.1,133.1 371.2,133.1 364.3,152.1 357.4,133.1 	"/>
	<polygon class="st2" points="358.5,133.1 364.3,149.1 370.1,133.1 371.2,133.1 364.3,152.1 357.4,133.1 	"/>
	<polygon class="st1" points="382.8,133.1 382.8,134.2 374.5,134.2 374.5,141.9 382.8,141.9 382.8,142.9 374.5,142.9 374.5,150.6 
		382.8,150.6 382.8,151.7 373.5,151.7 373.5,133.1 	"/>
	<polygon class="st2" points="382.8,133.1 382.8,134.2 374.5,134.2 374.5,141.9 382.8,141.9 382.8,142.9 374.5,142.9 374.5,150.6 
		382.8,150.6 382.8,151.7 373.5,151.7 373.5,133.1 	"/>
	<polygon class="st1" points="398.5,134.2 398.5,151.7 397.4,151.7 397.4,134.2 392.7,134.2 392.7,133.1 403.1,133.1 403.1,134.2 	
		"/>
	<polygon class="st2" points="398.5,134.2 398.5,151.7 397.4,151.7 397.4,134.2 392.7,134.2 392.7,133.1 403.1,133.1 403.1,134.2 	
		"/>
	<polygon class="st1" points="406.5,143.4 406.5,151.7 405.5,151.7 405.5,133.1 406.5,133.1 406.5,142.3 414.3,142.3 414.3,133.1 
		415.3,133.1 415.3,151.7 414.3,151.7 414.3,143.4 	"/>
	<polygon class="st2" points="406.5,143.4 406.5,151.7 405.5,151.7 405.5,133.1 406.5,133.1 406.5,142.3 414.3,142.3 414.3,133.1 
		415.3,133.1 415.3,151.7 414.3,151.7 414.3,143.4 	"/>
	<polygon class="st1" points="428.1,133.1 428.1,134.2 419.8,134.2 419.8,141.9 428.1,141.9 428.1,142.9 419.8,142.9 419.8,150.6 
		428.1,150.6 428.1,151.7 418.8,151.7 418.8,133.1 	"/>
	<polygon class="st2" points="428.1,133.1 428.1,134.2 419.8,134.2 419.8,141.9 428.1,141.9 428.1,142.9 419.8,142.9 419.8,150.6 
		428.1,150.6 428.1,151.7 418.8,151.7 418.8,133.1 	"/>
	<polygon class="st1" points="440.5,142.7 440.5,151.7 439.5,151.7 439.5,133.1 440.5,133.1 440.5,141 446.4,133.1 447.8,133.1 
		442.2,140.6 449.4,151.7 448.1,151.7 441.5,141.4 	"/>
	<polygon class="st2" points="440.5,142.7 440.5,151.7 439.5,151.7 439.5,133.1 440.5,133.1 440.5,141 446.4,133.1 447.8,133.1 
		442.2,140.6 449.4,151.7 448.1,151.7 441.5,141.4 	"/>
	<polygon class="st1" points="461.5,133.1 461.5,134.2 453.2,134.2 453.2,141.9 461.5,141.9 461.5,142.9 453.2,142.9 453.2,150.6 
		461.5,150.6 461.5,151.7 452.2,151.7 452.2,133.1 	"/>
	<polygon class="st2" points="461.5,133.1 461.5,134.2 453.2,134.2 453.2,141.9 461.5,141.9 461.5,142.9 453.2,142.9 453.2,150.6 
		461.5,150.6 461.5,151.7 452.2,151.7 452.2,133.1 	"/>
	<polygon class="st1" points="469.9,144.2 463.5,133.1 464.7,133.1 470.4,143 476.1,133.1 477.3,133.1 470.9,144.2 470.9,151.7 
		469.9,151.7 	"/>
	<polygon class="st2" points="469.9,144.2 463.5,133.1 464.7,133.1 470.4,143 476.1,133.1 477.3,133.1 470.9,144.2 470.9,151.7 
		469.9,151.7 	"/>
</g>
<g>
	<defs>
		<path id="SVGID_3_" d="M30.8,28.6c-0.4,0.2-0.9,0.7-1.3,1c-3.3,2.7-6.6,5.4-9.9,8.1c-0.2,0.1-0.3,0.3-0.4,0.5
			c-0.1,0.2-0.1,0.4-0.1,0.6c-0.2,2.9-0.5,5.9-0.7,8.8c-0.1,0.7-0.1,1.4-0.1,2.1c0,0.8,0.2,1.5,0.4,2.3l2,8.8
			c2.2-0.3,4.3-0.7,6.4-1.4c0.8-0.3,5.8-1.7,4.7-2c-1.1-0.3-5.3-0.7-5.9-1.5c-0.5-0.7-0.6-1.6-0.8-2.3c-0.3-1.4-0.6-2.9-0.7-4.4
			c-0.3-2.9-0.2-5.9,0.5-8.8c0.7-2.8,2.3-5.3,4.3-7.2c2.3-2.2,5-3.4,8.1-4.2c0.3-0.1,0.9-0.2,1.2-0.3c-1.2-0.3-2.9-0.4-4.2-0.4
			c-0.5,0-1.1-0.1-1.7-0.1C31.8,28.3,31.2,28.4,30.8,28.6"/>
	</defs>
	<clipPath id="SVGID_4_">
		<use xlink:href="#SVGID_3_"  style="overflow:visible;"/>
	</clipPath>
	
		<linearGradient id="SVGID_5_" gradientUnits="userSpaceOnUse" x1="-9.537" y1="453.5025" x2="-8.7685" y2="453.5025" gradientTransform="matrix(26.2228 0 0 -26.2228 268.2985 11936.6855)">
		<stop  offset="0" style="stop-color:#686767"/>
		<stop  offset="1" style="stop-color:#000000"/>
	</linearGradient>
	<rect x="18.2" y="28.3" class="st3" width="20.2" height="32.5"/>
</g>
<g>
	<defs>
		<rect id="SVGID_6_" x="-2" y="6" width="271.5" height="161.8"/>
	</defs>
	<clipPath id="SVGID_7_">
		<use xlink:href="#SVGID_6_"  style="overflow:visible;"/>
	</clipPath>
	<path class="st4" d="M31.9,122.1c0.1,0,0.3,0.1,0.4,0.1c-0.8-0.2-1.7-0.5-2.5-0.8C30.5,121.6,31.2,121.9,31.9,122.1"/>
	<path class="st4" d="M41.9,115.6C41.9,115.6,42,115.6,41.9,115.6C42,115.6,41.9,115.6,41.9,115.6"/>
	<path class="st4" d="M35.5,114.7c0.5,0.2,1,0.4,1.6,0.6C36.5,115.1,36,114.9,35.5,114.7"/>
	<path class="st4" d="M37.4,115.4c0.6,0.2,1.1,0.3,1.7,0.3C38.5,115.7,37.9,115.6,37.4,115.4"/>
	<path class="st4" d="M35.3,122.8c-0.9-0.1-1.7-0.3-2.5-0.5C33.6,122.5,34.4,122.7,35.3,122.8"/>
	<path class="st4" d="M45.7,80.6c-0.1,0-0.2-0.1-0.3-0.1v0C45.5,80.5,45.6,80.5,45.7,80.6"/>
	<path class="st4" d="M45,121.7c0.2-0.1,0.5-0.2,0.7-0.3c-0.7,0.3-1.3,0.6-2.1,0.8C44.1,122,44.6,121.8,45,121.7"/>
	<path class="st4" d="M39.1,94.1c-0.1,0.1-0.1,0.2-0.2,0.4C38.9,94.3,39,94.2,39.1,94.1"/>
	<path class="st4" d="M47.5,120.5c0.5-0.3,0.9-0.6,1.3-0.9c-0.6,0.4-1.2,0.8-1.9,1.2C47.1,120.7,47.3,120.6,47.5,120.5"/>
	<path class="st4" d="M50.8,102l2.7,2.8C52.6,104,51.6,102.8,50.8,102"/>
	<path class="st4" d="M49.6,83.7c-0.4-0.1-0.8-0.2-1.2-0.3c0.6,0.1,1.2,0.3,1.8,0.5C49.9,83.8,49.7,83.7,49.6,83.7"/>
	<path class="st4" d="M45.4,82.8c0.8,0.1,1.5,0.2,2.3,0.4C46.9,83,46.1,82.9,45.4,82.8"/>
	<path class="st4" d="M38.8,95.1c0-0.2,0-0.3,0.1-0.5C38.8,94.7,38.8,94.9,38.8,95.1L38.8,95.1"/>
	<path class="st4" d="M42.1,122.5L42.1,122.5c0.5-0.1,1.1-0.2,1.6-0.4C43.2,122.3,42.6,122.4,42.1,122.5"/>
	<path class="st4" d="M32.9,85.1c-0.4,0.2-0.7,0.5-1.1,0.7c0.5-0.4,1.2-0.7,1.8-1C33.4,84.8,33.1,84.9,32.9,85.1"/>
	<path class="st4" d="M37.9,83.2c-0.4,0.1-0.7,0.2-1,0.3c0.6-0.2,1.2-0.3,1.7-0.4C38.3,83.1,38.1,83.1,37.9,83.2"/>
	<path class="st4" d="M35.2,83.9c-0.2,0.1-0.4,0.2-0.5,0.3c0.7-0.3,1.4-0.6,2.1-0.8C36.3,83.6,35.8,83.7,35.2,83.9"/>
	<path class="st4" d="M30.9,81.9c0.4-0.2,0.7-0.4,1.1-0.5C31.7,81.5,31.3,81.7,30.9,81.9"/>
	<path class="st4" d="M40.8,112.2c-0.4,0.2-0.9,0.4-1.4,0.5c0.3-0.1,0.5-0.1,0.7-0.2C40.3,112.5,40.5,112.4,40.8,112.2"/>
	<path class="st4" d="M37.4,113c-0.3,0-0.6,0-1-0.1c0,0,0.1,0,0.1,0C36.8,113,37.1,113,37.4,113"/>
	<path class="st4" d="M35,125c0.1,0,0.2,0.1,0.3,0.1v0C35.2,125.1,35.1,125,35,125"/>
	<path class="st4" d="M39.2,112.8C39.2,112.8,39.2,112.8,39.2,112.8c-0.5,0.1-1.2,0.2-1.9,0.2c0.2,0,0.5,0,0.7,0
		C38.5,112.9,38.9,112.9,39.2,112.8"/>
	<path class="st4" d="M49.6,123.6c-0.4,0.2-0.8,0.4-1.2,0.6C48.8,124,49.2,123.8,49.6,123.6"/>
	<path class="st4" d="M34.7,112.6c-0.1,0-0.2-0.1-0.4-0.1c0.1,0,0.1,0.1,0.2,0.1C34.6,112.6,34.7,112.6,34.7,112.6"/>
	<polyline class="st4" points="23.2,117 25.8,119.8 23.2,117 23.2,117 	"/>
	<path class="st5" d="M42.1,122.5l2.7,2.8L42.1,122.5z"/>
	<path class="st4" d="M35.3,125.1L35.3,125.1c0,0,0.1,0,0.2,0C35.4,125.1,35.3,125.1,35.3,125.1"/>
	<path class="st4" d="M38,125.6c-0.9-0.1-1.7-0.3-2.5-0.5c0,0-0.1,0-0.2,0l-0.1,3.6l2.7,0L38,125.6z"/>
	<polygon class="st4" points="35.2,128.7 37.9,131.5 37.9,128.7 	"/>
</g>
<g>
	<defs>
		<polygon id="SVGID_8_" points="42,128.8 37.9,128.7 37.9,131.5 44.7,131.6 44.8,125.3 42.1,122.5 		"/>
	</defs>
	<clipPath id="SVGID_9_">
		<use xlink:href="#SVGID_8_"  style="overflow:visible;"/>
	</clipPath>
	
		<linearGradient id="SVGID_10_" gradientUnits="userSpaceOnUse" x1="-28.6236" y1="447.4916" x2="-27.8551" y2="447.4916" gradientTransform="matrix(8.9443 0 0 -8.9443 293.9172 4129.5488)">
		<stop  offset="0" style="stop-color:#686767"/>
		<stop  offset="1" style="stop-color:#000000"/>
	</linearGradient>
	<rect x="37.9" y="122.5" class="st6" width="6.9" height="9"/>
</g>
<g>
	<defs>
		<path id="SVGID_11_" d="M52.6,104.4c0.9,1.4,1.3,3.2,1.3,5.2c0,2.3-0.5,4.2-1.5,5.9c-0.9,1.7-2.1,3.1-3.6,4.2
			c-0.4,0.3-0.9,0.6-1.3,0.9c-0.2,0.1-0.4,0.2-0.6,0.3c-0.4,0.2-0.8,0.4-1.2,0.6c-0.2,0.1-0.4,0.2-0.7,0.3c-0.4,0.2-0.9,0.3-1.4,0.4
			c-0.5,0.2-1,0.3-1.6,0.4l2.7,2.8c0.5-0.1,1.1-0.2,1.6-0.4c0.5-0.1,0.9-0.3,1.3-0.5c0.2-0.1,0.5-0.2,0.7-0.3
			c0.4-0.2,0.8-0.4,1.2-0.6c0.2-0.1,0.4-0.2,0.5-0.3c0.5-0.3,0.9-0.5,1.4-0.8c1.5-1.1,2.7-2.5,3.6-4.2c0.9-1.7,1.4-3.6,1.5-5.9
			c0-2-0.4-3.8-1.3-5.2c-0.5-0.9-1.1-1.6-1.8-2.4c-0.5-0.5-0.9-0.9-1.5-1.3c0,0-0.1-0.1-0.1-0.1C52.1,103.7,52.4,104,52.6,104.4"/>
	</defs>
	<clipPath id="SVGID_12_">
		<use xlink:href="#SVGID_11_"  style="overflow:visible;"/>
	</clipPath>
	
		<linearGradient id="SVGID_13_" gradientUnits="userSpaceOnUse" x1="-13.7049" y1="452.817" x2="-12.9364" y2="452.817" gradientTransform="matrix(18.7735 0 0 -18.7735 299.4004 8615.3154)">
		<stop  offset="0" style="stop-color:#686767"/>
		<stop  offset="1" style="stop-color:#000000"/>
	</linearGradient>
	<rect x="42.1" y="103.4" class="st7" width="14.5" height="22"/>
</g>
<g>
	<defs>
		<rect id="SVGID_14_" x="-2" y="6" width="271.5" height="161.8"/>
	</defs>
	<clipPath id="SVGID_15_">
		<use xlink:href="#SVGID_14_"  style="overflow:visible;"/>
	</clipPath>
	<path class="st8" d="M43.9,111.3l-2.7-2.8C42.1,109.3,43.1,110.4,43.9,111.3"/>
	<path class="st9" d="M35.3,122.8c-0.9-0.1-1.7-0.3-2.5-0.5c-0.2,0-0.3-0.1-0.5-0.1c-0.1,0-0.3-0.1-0.4-0.1l2.6,2.8
		c0.1,0,0.3,0.1,0.4,0.1c0.1,0,0.2,0.1,0.3,0.1c0,0,0.1,0,0.2,0c0.8,0.2,1.7,0.4,2.5,0.5L35.3,122.8z"/>
	<path class="st9" d="M26.2,119.4l-0.3,0.5c2,1.8,4.2,3.3,6.7,4.3c0.7,0.3,1.3,0.5,2,0.7l-2.6-2.8c-0.7-0.2-1.4-0.5-2.1-0.7
		C28.6,120.8,27.3,120.1,26.2,119.4"/>
	<polygon class="st8" points="34.5,124.9 34.5,124.9 31.9,122.1 	"/>
	<path class="st9" d="M43.9,111.3c-0.2-0.2-0.4-0.3-0.6-0.5c-0.4-0.3-0.9-0.6-1.4-0.9c0,0.1,0.1,0.3,0.1,0.4c0,0.7-0.4,1.4-1.3,1.9
		c-0.2,0.1-0.4,0.2-0.7,0.3c-0.2,0.1-0.5,0.2-0.7,0.2c0,0,0,0-0.1,0c0,0,0,0,0,0c-0.4,0.1-0.7,0.1-1.2,0.2c-0.2,0-0.5,0-0.7,0
		c-0.3,0-0.6,0-0.9,0c0,0-0.1,0-0.1,0c-0.6-0.1-1.1-0.2-1.7-0.3c-0.1,0-0.1,0-0.2,0c-0.1,0-0.1-0.1-0.2-0.1c-0.5-0.2-1-0.4-1.6-0.6
		c-1.5-0.7-3-1.6-4.4-2.7l2.7,2.8c1.4,1.1,2.9,1.9,4.4,2.7c0.5,0.2,1,0.4,1.6,0.6c0.1,0,0.1,0,0.2,0.1c0.1,0,0.1,0,0.2,0.1
		c0.6,0.2,1.1,0.3,1.7,0.3c0,0,0.1,0,0.1,0c0.3,0,0.6,0.1,0.9,0.1c0.2,0,0.4,0,0.7-0.1c0.4,0,0.8,0,1.2-0.1c0,0,0,0,0,0
		c0,0,0,0,0.1,0c0.3-0.1,0.5-0.2,0.7-0.3c0.3-0.1,0.5-0.2,0.8-0.3c0.8-0.5,1.2-1.1,1.3-1.9C44.7,112.4,44.4,111.8,43.9,111.3"/>
</g>
<g>
	<defs>
		<path id="SVGID_16_" d="M23.2,117L23.2,117c0.5,0.5,1,0.9,1.5,1.3c0.5,0.4,1,0.7,1.4,1l4.9-7.3l-2.7-2.8L23.2,117z"/>
	</defs>
	<clipPath id="SVGID_17_">
		<use xlink:href="#SVGID_16_"  style="overflow:visible;"/>
	</clipPath>
	
		<linearGradient id="SVGID_18_" gradientUnits="userSpaceOnUse" x1="-24.4778" y1="448.4882" x2="-23.7093" y2="448.4882" gradientTransform="matrix(10.2781 0 0 -10.2781 274.761 4723.8726)">
		<stop  offset="0" style="stop-color:#686767"/>
		<stop  offset="1" style="stop-color:#000000"/>
	</linearGradient>
	<rect x="23.2" y="109.2" class="st10" width="7.9" height="10.1"/>
</g>
<g>
	<defs>
		<rect id="SVGID_19_" x="-2" y="6" width="271.5" height="161.8"/>
	</defs>
	<clipPath id="SVGID_20_">
		<use xlink:href="#SVGID_19_"  style="overflow:visible;"/>
	</clipPath>
	<path class="st11" d="M24.7,118.3c-0.5-0.4-1-0.8-1.5-1.3l2.7,2.8l0.3-0.5C25.7,119,25.2,118.7,24.7,118.3"/>
	<path class="st11" d="M38.7,95.2c0-0.1,0-0.1,0-0.1c0,0,0,0,0,0C38.8,95.1,38.7,95.2,38.7,95.2"/>
	<path class="st11" d="M39.3,96.5c0.2,0.2,0.5,0.4,0.8,0.6c0.9,0.5,2,1.1,3.3,1.7c1.3,0.6,2.8,1.3,4.3,2c1.5,0.7,2.9,1.6,4.2,2.6
		c-0.3-0.5-0.7-1-1.1-1.4c-0.5-0.5-0.9-0.9-1.5-1.3c-1.3-1-2.7-1.9-4.3-2.7c-1.6-0.7-3-1.4-4.3-2c-0.7-0.3-1.3-0.6-1.9-0.9
		c0,0,0,0.1,0,0.1C38.7,95.7,38.9,96.1,39.3,96.5"/>
	<path class="st11" d="M52,103.5c0.5,0.4,1,0.9,1.5,1.3l-2.7-2.8c0.4,0.4,0.7,0.9,1.1,1.4C51.9,103.4,51.9,103.4,52,103.5"/>
</g>
<g>
	<defs>
		<path id="SVGID_21_" d="M29.9,103.5c0.5,0.5,1,0.9,1.5,1.4c1.3,1,2.7,1.8,4.3,2.4c1.6,0.6,3,1.2,4.3,1.8c0.7,0.3,1.3,0.6,1.9,0.9
			c0.5,0.3,1,0.6,1.4,0.9c0.2,0.1,0.4,0.3,0.6,0.5c-0.8-0.8-1.9-2-2.7-2.8c-0.2-0.2-0.4-0.3-0.6-0.5c-0.9-0.6-2-1.2-3.3-1.7
			c-1.3-0.6-2.8-1.1-4.3-1.8c-1.6-0.6-3-1.4-4.3-2.4c0,0,0,0-0.1-0.1C29.1,102.5,29.5,103,29.9,103.5"/>
	</defs>
	<clipPath id="SVGID_22_">
		<use xlink:href="#SVGID_21_"  style="overflow:visible;"/>
	</clipPath>
	
		<linearGradient id="SVGID_23_" gradientUnits="userSpaceOnUse" x1="-12.786" y1="452.9728" x2="-12.0175" y2="452.9728" gradientTransform="matrix(19.807 0 0 -19.807 281.9647 9078.6445)">
		<stop  offset="0" style="stop-color:#686767"/>
		<stop  offset="1" style="stop-color:#000000"/>
	</linearGradient>
	<rect x="28.7" y="102" class="st12" width="15.2" height="9.3"/>
</g>
<g>
	<defs>
		<rect id="SVGID_24_" x="-2" y="6" width="271.5" height="161.8"/>
	</defs>
	<clipPath id="SVGID_25_">
		<use xlink:href="#SVGID_24_"  style="overflow:visible;"/>
	</clipPath>
	<path class="st13" d="M45.4,82.8c0.8,0.1,1.5,0.2,2.3,0.4c0.2,0,0.5,0.1,0.7,0.2c0.4,0.1,0.8,0.2,1.2,0.3l-2.6-2.8
		c-0.4-0.1-0.8-0.2-1.2-0.3c-0.1,0-0.2,0-0.3-0.1L45.4,82.8z"/>
	<path class="st13" d="M50.1,83.8c1.1,0.4,2.2,0.8,3.2,1.3l0.4-0.7c-1.8-1.5-3.8-2.6-6.2-3.4c-0.2-0.1-0.3-0.1-0.5-0.1l2.6,2.8
		C49.7,83.7,49.9,83.8,50.1,83.8"/>
</g>
<g>
	<defs>
		<polygon id="SVGID_26_" points="53.3,85.2 49.1,92.7 51.7,95.5 56.3,87.2 53.7,84.4 		"/>
	</defs>
	<clipPath id="SVGID_27_">
		<use xlink:href="#SVGID_26_"  style="overflow:visible;"/>
	</clipPath>
	
		<linearGradient id="SVGID_28_" gradientUnits="userSpaceOnUse" x1="-27.5248" y1="446.843" x2="-26.7563" y2="446.843" gradientTransform="matrix(9.4238 0 0 -9.4238 308.4745 4300.9087)">
		<stop  offset="0" style="stop-color:#686767"/>
		<stop  offset="1" style="stop-color:#000000"/>
	</linearGradient>
	<rect x="49.1" y="84.4" class="st14" width="7.2" height="11.1"/>
</g>
<g>
	<defs>
		<rect id="SVGID_29_" x="-2" y="6" width="271.5" height="161.8"/>
	</defs>
	<clipPath id="SVGID_30_">
		<use xlink:href="#SVGID_29_"  style="overflow:visible;"/>
	</clipPath>
	<path class="st15" d="M45.4,80.5L45.4,80.5c-0.1,0-0.3-0.1-0.4-0.1C45.1,80.4,45.3,80.5,45.4,80.5"/>
</g>
<g>
	<defs>
		<polygon id="SVGID_31_" points="42.7,80 45.4,82.8 45.4,80.5 45.4,80.5 45.5,76.6 42.8,76.6 		"/>
	</defs>
	<clipPath id="SVGID_32_">
		<use xlink:href="#SVGID_31_"  style="overflow:visible;"/>
	</clipPath>
	
		<linearGradient id="SVGID_33_" gradientUnits="userSpaceOnUse" x1="-16.1964" y1="494.5742" x2="-15.4279" y2="494.5742" gradientTransform="matrix(0.1445 -6.9958 -6.9958 -0.1445 3506.3276 40.1505)">
		<stop  offset="0" style="stop-color:#686767"/>
		<stop  offset="1" style="stop-color:#000000"/>
	</linearGradient>
	<polygon class="st16" points="42.6,82.8 42.7,76.5 45.6,76.6 45.5,82.9 	"/>
</g>
<g>
	<defs>
		<rect id="SVGID_34_" x="-2" y="6" width="488" height="161.8"/>
	</defs>
	<clipPath id="SVGID_35_">
		<use xlink:href="#SVGID_34_"  style="overflow:visible;"/>
	</clipPath>
	<path class="st17" d="M28.2,101.2c-0.9-1.5-1.3-3.3-1.3-5.6c0-2.2,0.5-4.1,1.4-5.8c0.9-1.6,2.1-3,3.5-4c0.3-0.3,0.7-0.5,1.1-0.7
		l-2.6-2.8c-0.4,0.2-0.8,0.4-1.1,0.7c-1.5,1.1-2.6,2.4-3.5,4c-0.9,1.6-1.4,3.6-1.4,5.8c0,2.3,0.4,4.2,1.3,5.6
		c0.5,0.9,1.1,1.6,1.7,2.3c0.5,0.5,0.9,0.9,1.5,1.3C28.5,101.7,28.3,101.5,28.2,101.2"/>
	<path class="st17" d="M27.2,100.7l2.7,2.8c-0.4-0.5-0.8-1-1.2-1.5C28.2,101.6,27.7,101.2,27.2,100.7"/>
	<path class="st17" d="M33.6,84.7c0.4-0.2,0.7-0.4,1.1-0.5c0.2-0.1,0.3-0.2,0.5-0.3l-2.6-2.8c-0.2,0.1-0.4,0.1-0.6,0.2
		c-0.4,0.2-0.7,0.3-1.1,0.5c-0.2,0.1-0.4,0.3-0.7,0.4l2.6,2.8C33.1,84.9,33.4,84.8,33.6,84.7"/>
	<path class="st17" d="M36.8,83.4c0.3-0.1,0.7-0.2,1-0.3l-2.6-2.8c-0.4,0.1-0.7,0.1-1.1,0.2c-0.5,0.1-1,0.4-1.5,0.6l2.6,2.8
		C35.8,83.7,36.3,83.6,36.8,83.4"/>
	<path class="st17" d="M38.6,83l-2.7-2.8c-0.2,0-0.5,0.1-0.7,0.1l2.6,2.8C38.1,83.1,38.3,83.1,38.6,83"/>
	<polygon class="st17" points="36,73.8 35.9,80.2 38.6,83 38.7,76.6 	"/>
	<polygon class="st17" points="42.8,76.6 42.8,73.8 36,73.8 38.7,76.6 	"/>
	<polygon class="st17" points="45.5,76.6 42.8,73.8 42.8,76.6 	"/>
	<path class="st17" d="M71.5,79.9c0-2.8,0.1-5.7,0.3-8.5c0-0.2,0-0.6,0-1.1L55.4,58.5c0,0.3,0,0.6,0,0.8c0,0.5-0.2,3.9,0.1,4
		c-1.8-1-3.7-1.9-5.6-2.7c-7.6-2.9-16.3-3.8-24.4-3.1c-1.7,0.1-4.3,0.6-4.4-1.8c-0.2-5.7-0.8-12.2,1.8-17.4c2.2-4.5,6.5-7.8,11.3-9
		c3.5-0.9,7.3-0.7,10.6,0.6c3.1,1.3,5.8,3.5,7.7,6.2c1.6,2.3,2.4,5,2.7,7.8l17.2,12.4c0-1,0.1-1.7,0.1-2c-0.1-6.8-0.8-13.7-3.1-20.1
		C62.6,16,40.9,6.9,23.3,15.9c-11.8,6-18.2,16-18.6,29C4.6,49,4.5,53.2,4.5,57.4h0v95.1h27.2c7.7,0,14.4-1.3,20-4
		c5.7-2.6,10.4-6.2,14.2-10.5c3.8-4.4,6.6-9.4,8.4-15.2c1.8-5.7,2.8-11.7,2.8-17.9c0-7.3-1.1-13.9-3.2-19.8
		C73.1,83.3,72.4,81.6,71.5,79.9 M55.1,118.3c-0.9,1.7-2.1,3.1-3.6,4.2c-0.4,0.3-0.9,0.6-1.4,0.8c-0.2,0.1-0.4,0.2-0.5,0.3
		c-0.4,0.2-0.8,0.4-1.2,0.6c-0.2,0.1-0.5,0.2-0.7,0.3c-0.4,0.2-0.8,0.4-1.3,0.5c-0.5,0.2-1,0.3-1.6,0.4l-0.1,6.2l-6.8,0l-2.7-2.8
		l0.1-3.6c-0.1,0-0.2-0.1-0.3-0.1c-0.1,0-0.3-0.1-0.4-0.1c-0.7-0.2-1.4-0.4-2-0.7c-2.4-1-4.7-2.5-6.7-4.3c0,0-2.7-2.8-2.7-2.8
		l5.2-7.8c1.4,1.1,2.9,1.9,4.4,2.7c0.5,0.2,1,0.4,1.6,0.6c0.1,0,0.2,0.1,0.3,0.1c0.6,0.2,1.1,0.3,1.7,0.3c0.3,0,0.6,0.1,1,0.1
		c0.7,0,1.3-0.1,1.9-0.2c0,0,0,0,0.1,0c0.5-0.1,1-0.3,1.4-0.5c0.8-0.5,1.2-1.1,1.3-1.9c0-0.2-0.1-0.3-0.1-0.4
		c-0.6-0.3-1.2-0.6-1.9-0.9c-1.3-0.6-2.8-1.1-4.3-1.8c-1.6-0.6-3-1.4-4.3-2.4c-0.5-0.4-1.1-0.9-1.5-1.4l-2.7-2.8
		c-0.7-0.7-1.2-1.5-1.7-2.3c-0.9-1.5-1.3-3.3-1.3-5.6c0-2.2,0.5-4.1,1.4-5.8c0.9-1.6,2.1-3,3.5-4c0.3-0.3,0.7-0.4,1.1-0.7
		c0.2-0.1,0.4-0.3,0.7-0.4c0.4-0.2,0.7-0.4,1.1-0.5c0.2-0.1,0.4-0.1,0.6-0.2c0.5-0.2,1-0.4,1.5-0.6c0.3-0.1,0.7-0.2,1.1-0.2
		c0.2,0,0.5-0.1,0.7-0.1l0.1-6.5l6.8,0l2.7,2.8l-0.1,3.9c0.1,0,0.2,0.1,0.3,0.1c0.4,0.1,0.8,0.2,1.2,0.3c0.2,0.1,0.3,0.1,0.5,0.1
		c2.4,0.8,4.5,1.9,6.2,3.4l2.7,2.8l-4.6,8.3c0.1-0.1-2.4-1.3-2.6-1.4c-1.3-0.6-2.7-1.1-4.1-1.4c-1.9-0.3-6.1-0.4-6.3,2.4
		c0.6,0.3,1.2,0.6,1.9,0.9c1.3,0.6,2.8,1.3,4.3,2c1.6,0.7,3,1.6,4.3,2.7c0.5,0.4,1,0.9,1.5,1.3c0.8,0.8,1.9,2,2.7,2.8
		c0.7,0.7,1.3,1.5,1.8,2.4c0.9,1.4,1.3,3.2,1.3,5.2C56.5,114.6,56,116.6,55.1,118.3 M49.1,92.7c-0.1-0.1-0.4-0.3-0.6-0.4
		c-0.2-0.1-0.4-0.2-0.6-0.4c-0.4-0.2-0.9-0.5-1.3-0.7c-0.9-0.4-1.8-0.8-2.7-1c-1.9-0.5-4-0.7-5.9-0.1c-0.2,0.1-0.3,0.1-0.5,0.2
		c-0.9,0.4-1.5,1.2-1.3,2.2c0.1,0.8,0.7,1.5,1.3,2.1c0.6,0.5,1.3,1,1.7,1.7c-0.1-0.2-0.3-0.3-0.3-0.5c-0.1-0.2-0.1-0.3-0.1-0.5
		c-0.1-0.4,0.1-0.8,0.2-1.2c0.2-0.5,0.6-0.9,1.1-1.1s1-0.4,1.6-0.5c2-0.3,4,0,5.9,0.7c1.5,0.6,2.9,1.2,4.2,2.1L49.1,92.7z"/>
	<path class="st18" d="M55.3,48.6c0,2.2,0,4.4,0,6.6c0,1.1,0,2.1,0,3.2l16.4,11.9c0.1-2.9,0.4-10.3,0.5-13.9L55.1,44
		C55.3,45.5,55.4,47.1,55.3,48.6"/>
</g>
<g>
	<defs>
		<path id="SVGID_36_" d="M38,90.2c-0.2,0.1-0.3,0.1-0.5,0.2c-0.9,0.4-1.5,1.2-1.3,2.2c0.1,0.8,0.6,1.7,1.2,2.3
			c0.6,0.5,1.3,1,1.8,1.6c-0.1-0.2-0.3-0.3-0.3-0.5c-0.1-0.2-0.1-0.3-0.1-0.5c-0.1-0.4,0-0.8,0.2-1.2c0.2-0.5,0.6-0.9,1.1-1.1
			c0.5-0.2,1-0.4,1.6-0.5c2-0.3,4,0,5.9,0.7c1.5,0.6,2.9,1.2,4.2,2.1l-2.7-2.8c-0.1-0.1-0.4-0.3-0.6-0.4c-0.2-0.1-0.4-0.2-0.6-0.4
			c-0.4-0.2-0.9-0.5-1.3-0.7c-0.9-0.4-1.8-0.8-2.7-1c-1.1-0.3-2.2-0.5-3.4-0.5C39.6,89.8,38.8,89.9,38,90.2"/>
	</defs>
	<clipPath id="SVGID_37_">
		<use xlink:href="#SVGID_36_"  style="overflow:visible;"/>
	</clipPath>
	
		<linearGradient id="SVGID_38_" gradientUnits="userSpaceOnUse" x1="-12.5857" y1="452.8955" x2="-11.8172" y2="452.8955" gradientTransform="matrix(20.3001 0 0 -20.3001 291.6357 9286.9395)">
		<stop  offset="0" style="stop-color:#686767"/>
		<stop  offset="1" style="stop-color:#000000"/>
	</linearGradient>
	<rect x="36" y="89.8" class="st19" width="15.7" height="6.6"/>
</g>
</svg>
