<svg id="laptop-profits-graphics" xmlns="http://www.w3.org/2000/svg" width="49.857" height="38.488" viewBox="0 0 49.857 38.488">
  <path id="Path_11" data-name="Path 11" d="M49,130.9H46.331V106.44a1.88,1.88,0,0,0-1.88-1.88H42.325l-1.345,3.271h2.08v21.78H6.814v-21.78h4.77l3.965-3.271H5.423a1.88,1.88,0,0,0-1.88,1.88V130.9H.859a.859.859,0,0,0-.859.859,3.7,3.7,0,0,0,3.7,3.7H33.57v-1.6a1.03,1.03,0,1,1,2.06,0v1.6h1.689v-1.6a1.03,1.03,0,0,1,2.06,0v1.6h6.781a3.7,3.7,0,0,0,3.7-3.7A.859.859,0,0,0,49,130.9Z" transform="translate(0 -96.965)" fill="#3b8040"/>
  <path id="Path_12" data-name="Path 12" d="M89.432,59.589l6.318-4.573,4.537,5.483.545.659.805-.545,12.032-8.148,1.944,2.354a.43.43,0,0,0,.332.156.438.438,0,0,0,.064,0,.43.43,0,0,0,.334-.262l3.848-9.356a.43.43,0,0,0-.483-.585l-9.916,2.007a.43.43,0,0,0-.246.7l1.771,2.145L101.06,58.454,96.271,53.87l-.4-.381-.365.319L89.04,59.145C89.075,59.186,89.4,59.545,89.432,59.589Z" transform="translate(-77.732 -44.758)" fill="#3b8040"/>
  <path id="Path_13" data-name="Path 13" d="M203.624,242.874v3.344a1.016,1.016,0,0,0,2.032,0v-3.344a1.016,1.016,0,1,0-2.032,0Z" transform="translate(-177.764 -216.827)" fill="#3b8040"/>
  <path id="Path_14" data-name="Path 14" d="M174.64,208.858a1.016,1.016,0,0,0-1.016,1.016v7.535a1.016,1.016,0,0,0,2.032,0v-7.535A1.016,1.016,0,0,0,174.64,208.858Z" transform="translate(-151.574 -188.018)" fill="#3b8040"/>
  <path id="Path_15" data-name="Path 15" d="M143.624,242.874v3.344a1.016,1.016,0,0,0,2.032,0v-3.344a1.016,1.016,0,1,0-2.032,0Z" transform="translate(-125.384 -216.827)" fill="#3b8040"/>
  <path id="Path_16" data-name="Path 16" d="M113.624,209.874v7.535a1.016,1.016,0,0,0,2.032,0v-7.535a1.016,1.016,0,1,0-2.032,0Z" transform="translate(-99.194 -188.018)" fill="#3b8040"/>
  <path id="Path_17" data-name="Path 17" d="M84.364,187.9a1.018,1.018,0,0,0-.74.977v10.2a1.016,1.016,0,1,0,2.032,0v-10.2a1.014,1.014,0,0,0-1.292-.977Z" transform="translate(-73.004 -169.685)" fill="#3b8040"/>
  <path id="Path_18" data-name="Path 18" d="M274.3,228.025h-4.657a1.016,1.016,0,1,0,0,2.032H274.3a1.016,1.016,0,1,0,0-2.032Z" transform="translate(-234.509 -204.751)" fill="#3b8040"/>
  <path id="Path_19" data-name="Path 19" d="M274.3,263.025h-4.657a1.016,1.016,0,1,0,0,2.032H274.3a1.016,1.016,0,1,0,0-2.032Z" transform="translate(-234.509 -235.306)" fill="#3b8040"/>
</svg>
