<svg xmlns="http://www.w3.org/2000/svg" width="29.627" height="23.703" viewBox="0 0 29.627 23.703">
  <path id="Icon_awesome-user-edit" data-name="Icon awesome-user-edit" d="M10.37,11.851A5.926,5.926,0,1,0,4.444,5.926,5.925,5.925,0,0,0,10.37,11.851Zm4.148,1.481h-.773a8.059,8.059,0,0,1-6.75,0H6.222A6.223,6.223,0,0,0,0,19.554V21.48A2.223,2.223,0,0,0,2.222,23.7H14.948a2.223,2.223,0,0,1-.12-.986l.315-2.819.056-.514.366-.366,3.578-3.578a6.159,6.159,0,0,0-4.625-2.106Zm2.1,6.726L16.3,22.883a.737.737,0,0,0,.815.815l2.819-.315L26.318,17,23,13.68l-6.384,6.379ZM29.3,12.448l-1.755-1.755a1.109,1.109,0,0,0-1.565,0l-1.75,1.75-.19.19,3.324,3.319L29.3,14.018a1.115,1.115,0,0,0,0-1.569Z"/>
</svg>
