<svg xmlns="http://www.w3.org/2000/svg" width="46.301" height="46.252" viewBox="0 0 46.301 46.252"><defs><style>.a{fill:#3b8040;}</style></defs><g transform="translate(0 -0.5)"><path class="a" d="M35.6,132.676a.678.678,0,0,0,.958-.958l-1.645-1.645,1.645-1.645a.678.678,0,1,0-.958-.958l-2.124,2.124a.678.678,0,0,0,0,.958Zm0,0" transform="translate(-30.265 -115.306)"/><path class="a" d="M114.775,130.069l-1.645,1.645a.678.678,0,1,0,.958.958l2.125-2.125a.677.677,0,0,0,0-.958l-2.125-2.125a.678.678,0,1,0-.958.958Zm0,0" transform="translate(-102.719 -115.303)"/><path class="a" d="M76.847,132.823a.678.678,0,0,0,.879-.383l1.669-4.249a.678.678,0,1,0-1.261-.5l-1.669,4.249A.678.678,0,0,0,76.847,132.823Zm0,0" transform="translate(-69.507 -115.302)"/><path class="a" d="M38.193,219.57h4.565a.678.678,0,0,0,0-1.355H38.193a.678.678,0,0,0,0,1.355Zm0,0" transform="translate(-34.123 -198.026)"/><path class="a" d="M124.215,218.215h-8.026a.678.678,0,0,0,0,1.355h8.026a.678.678,0,1,0,0-1.355Zm0,0" transform="translate(-105.066 -198.026)"/><path class="a" d="M38.193,251.176h1.945a.678.678,0,0,0,0-1.355H38.193a.678.678,0,0,0,0,1.355Zm0,0" transform="translate(-34.123 -226.774)"/><path class="a" d="M177.525,249.82a.678.678,0,0,0,0,1.355h1.184a.678.678,0,1,0,0-1.355Zm0,0" transform="translate(-160.855 -226.773)"/><path class="a" d="M92.484,250.5a.678.678,0,0,0-.678-.678H85.99a.678.678,0,0,0,0,1.355h5.817A.678.678,0,0,0,92.484,250.5Zm0,0" transform="translate(-77.598 -226.774)"/><path class="a" d="M213.7,250.5a.678.678,0,0,0,.678.678H216.6a.678.678,0,1,0,0-1.355h-2.218A.678.678,0,0,0,213.7,250.5Zm0,0" transform="translate(-194.378 -226.774)"/><path class="a" d="M166.077,150.633h2.34a.678.678,0,1,0,0-1.355h-2.34a.678.678,0,1,0,0,1.355Zm0,0" transform="translate(-150.442 -135.323)"/><path class="a" d="M220.924,150.633H235.2a.678.678,0,0,0,0-1.355H220.924a.678.678,0,1,0,0,1.355Zm0,0" transform="translate(-200.329 -135.323)"/><path class="a" d="M296.644,182.246h-5.783a.678.678,0,0,0,0,1.355h5.783a.678.678,0,0,0,0-1.355Zm0,0" transform="translate(-263.942 -165.31)"/><path class="a" d="M246.892,182.246H244.9a.678.678,0,0,0,0,1.355h1.988a.678.678,0,0,0,0-1.355Zm0,0" transform="translate(-222.141 -165.31)"/><path class="a" d="M166.077,183.6h4.87a.678.678,0,0,0,0-1.355h-4.87a.678.678,0,1,0,0,1.355Zm0,0" transform="translate(-150.442 -165.31)"/><path class="a" d="M104.489,281.16H99.924a.678.678,0,1,0,0,1.355h4.565a.678.678,0,1,0,0-1.355Zm0,0" transform="translate(-90.272 -255.279)"/><path class="a" d="M41.7,281.16H38.193a.678.678,0,1,0,0,1.355H41.7a.678.678,0,1,0,0-1.355Zm0,0" transform="translate(-34.123 -255.279)"/><path class="a" d="M181.93,281.16h-5.963a.678.678,0,1,0,0,1.355h5.963a.678.678,0,1,0,0-1.355Zm0,0" transform="translate(-159.438 -255.279)"/><path class="a" d="M298.286,242.668h-3.261a.678.678,0,0,0,0,1.355h3.261a.678.678,0,0,0,0-1.355Zm0,0" transform="translate(-267.729 -220.268)"/><path class="a" d="M393.654,244.023h4.6a.678.678,0,1,0,0-1.355h-4.6a.678.678,0,0,0,0,1.355Zm0,0" transform="translate(-357.439 -220.268)"/><path class="a" d="M357.589,242.668h-1.055a.678.678,0,1,0,0,1.355h1.055a.678.678,0,0,0,0-1.355Zm0,0" transform="translate(-323.675 -220.268)"/><path class="a" d="M295.025,325.684h3.261a.678.678,0,1,0,0-1.355h-3.261a.678.678,0,0,0,0,1.355Zm0,0" transform="translate(-267.729 -294.544)"/><path class="a" d="M393.654,325.684h4.6a.678.678,0,1,0,0-1.355h-4.6a.678.678,0,0,0,0,1.355Zm0,0" transform="translate(-357.439 -294.544)"/><path class="a" d="M356.537,325.684h1.055a.678.678,0,1,0,0-1.355h-1.055a.678.678,0,0,0,0,1.355Zm0,0" transform="translate(-323.679 -294.544)"/><path class="a" d="M298.286,405.988h-3.261a.678.678,0,0,0,0,1.355h3.261a.678.678,0,1,0,0-1.355Zm0,0" transform="translate(-267.729 -368.819)"/><path class="a" d="M398.257,405.988h-4.6a.678.678,0,1,0,0,1.355h4.6a.678.678,0,1,0,0-1.355Zm0,0" transform="translate(-357.439 -368.819)"/><path class="a" d="M357.589,405.988h-1.055a.678.678,0,1,0,0,1.355h1.055a.678.678,0,0,0,0-1.355Zm0,0" transform="translate(-323.675 -368.819)"/><path class="a" d="M43.319.5H2.982A2.986,2.986,0,0,0,0,3.482V36.27a2.986,2.986,0,0,0,2.983,2.982h2.55a.678.678,0,1,0,0-1.355H2.982A1.629,1.629,0,0,1,1.355,36.27V33.7H26.043v1.168h-.537A1.334,1.334,0,0,0,24.173,36.2v1.7H9.652a.678.678,0,1,0,0,1.355h6.515v2.43H14.122a2.478,2.478,0,0,0-2.475,2.475v1.464a1.131,1.131,0,0,0,1.129,1.129h20.7A1.131,1.131,0,0,0,34.6,45.622V44.158a2.478,2.478,0,0,0-2.475-2.475H30.082v-.857H42.609a1.334,1.334,0,0,0,1.332-1.333v-.319a2.987,2.987,0,0,0,2.308-2.9L46.3,3.482A2.985,2.985,0,0,0,43.319.5ZM25.528,32.086V28.838H42.586v3.248Zm1.87-4.6V26.057H40.716v1.426Zm13.318,5.959v1.426H27.4V33.441ZM17.523,39.253h6.65v.241a1.334,1.334,0,0,0,1.333,1.332h3.221v.857h-11.2Zm14.605,3.786a1.121,1.121,0,0,1,1.12,1.12V45.4H13V44.158a1.121,1.121,0,0,1,1.12-1.12Zm10.458-3.568H25.528V36.223H42.586Zm2.308-3.2a1.627,1.627,0,0,1-.953,1.479V36.2a1.334,1.334,0,0,0-1.333-1.332h-.537V33.7h2.823Zm0-3.926H43.92c.014-.077.022-3.529.022-3.529a1.334,1.334,0,0,0-1.333-1.333h-.537V26.057h.537a1.335,1.335,0,0,0,1.333-1.333V21.431A1.335,1.335,0,0,0,42.609,20.1H38.781a.678.678,0,0,0,0,1.355h3.8V24.7H25.528V21.453h9.037a.678.678,0,0,0,0-1.355h-9.06a1.334,1.334,0,0,0-1.333,1.333v3.293a1.334,1.334,0,0,0,1.333,1.333h.537v1.426h-.537a1.334,1.334,0,0,0-1.333,1.333s.008,3.452.022,3.529H1.355V9.718h43.54Zm0-23.982H1.4V3.482A1.629,1.629,0,0,1,3.032,1.855H43.267a1.629,1.629,0,0,1,1.627,1.627Zm0,0" transform="translate(0 0)"/><path class="a" d="M35.262,29.262a1.989,1.989,0,1,0,1.989,1.988A1.991,1.991,0,0,0,35.262,29.262Zm0,2.622a.633.633,0,1,1,.633-.633A.634.634,0,0,1,35.262,31.884Zm0,0" transform="translate(-30.265 -26.161)"/><path class="a" d="M91.247,29.262a1.989,1.989,0,1,0,1.988,1.988A1.991,1.991,0,0,0,91.247,29.262Zm0,2.622a.633.633,0,1,1,.633-.633A.634.634,0,0,1,91.247,31.884Zm0,0" transform="translate(-81.186 -26.161)"/><path class="a" d="M147.234,29.262a1.989,1.989,0,1,0,1.989,1.988A1.991,1.991,0,0,0,147.234,29.262Zm0,2.622a.633.633,0,1,1,.633-.633A.634.634,0,0,1,147.234,31.884Zm0,0" transform="translate(-132.111 -26.161)"/></g></svg>